<mxfile host="app.diagrams.net" modified="2022-12-04T15:02:08.490Z" agent="5.0 (Windows NT 10.0; Win64; x64) AppleWebKit/537.36 (KHTML, like Gecko) Chrome/108.0.0.0 Safari/537.36" etag="61N4_oUmGW_ouPdvtCRs" version="20.6.0" type="github">
  <diagram id="C5RBs43oDa-KdzZeNtuy" name="Page-1">
    <mxGraphModel dx="2076" dy="1234" grid="1" gridSize="10" guides="1" tooltips="1" connect="1" arrows="1" fold="1" page="1" pageScale="1" pageWidth="827" pageHeight="1169" math="0" shadow="0">
      <root>
        <mxCell id="WIyWlLk6GJQsqaUBKTNV-0" />
        <mxCell id="WIyWlLk6GJQsqaUBKTNV-1" parent="WIyWlLk6GJQsqaUBKTNV-0" />
        <mxCell id="X9C1vtubzveI6itHX-SZ-12" value="" style="edgeStyle=orthogonalEdgeStyle;rounded=0;orthogonalLoop=1;jettySize=auto;html=1;" parent="WIyWlLk6GJQsqaUBKTNV-1" source="X9C1vtubzveI6itHX-SZ-0" target="X9C1vtubzveI6itHX-SZ-3" edge="1">
          <mxGeometry relative="1" as="geometry" />
        </mxCell>
        <mxCell id="X9C1vtubzveI6itHX-SZ-0" value="knuthsAlgorithm&lt;br&gt;START" style="ellipse;whiteSpace=wrap;html=1;" parent="WIyWlLk6GJQsqaUBKTNV-1" vertex="1">
          <mxGeometry x="130" y="50" width="120" height="80" as="geometry" />
        </mxCell>
        <mxCell id="X9C1vtubzveI6itHX-SZ-13" value="" style="edgeStyle=orthogonalEdgeStyle;rounded=0;orthogonalLoop=1;jettySize=auto;html=1;" parent="WIyWlLk6GJQsqaUBKTNV-1" source="X9C1vtubzveI6itHX-SZ-3" target="X9C1vtubzveI6itHX-SZ-4" edge="1">
          <mxGeometry relative="1" as="geometry" />
        </mxCell>
        <mxCell id="X9C1vtubzveI6itHX-SZ-3" value="Create set S of all possible guesses" style="rounded=0;whiteSpace=wrap;html=1;" parent="WIyWlLk6GJQsqaUBKTNV-1" vertex="1">
          <mxGeometry x="130" y="160" width="120" height="60" as="geometry" />
        </mxCell>
        <mxCell id="pyRPbuoNIwLuSSbs0AWB-20" value="" style="edgeStyle=orthogonalEdgeStyle;rounded=0;orthogonalLoop=1;jettySize=auto;html=1;" edge="1" parent="WIyWlLk6GJQsqaUBKTNV-1" source="X9C1vtubzveI6itHX-SZ-4" target="pyRPbuoNIwLuSSbs0AWB-19">
          <mxGeometry relative="1" as="geometry" />
        </mxCell>
        <mxCell id="X9C1vtubzveI6itHX-SZ-4" value="Create immutable set C of all possible codes" style="rounded=0;whiteSpace=wrap;html=1;" parent="WIyWlLk6GJQsqaUBKTNV-1" vertex="1">
          <mxGeometry x="130" y="250" width="120" height="60" as="geometry" />
        </mxCell>
        <mxCell id="X9C1vtubzveI6itHX-SZ-6" value="Set the next guess to be the initial guess" style="rounded=0;whiteSpace=wrap;html=1;" parent="WIyWlLk6GJQsqaUBKTNV-1" vertex="1">
          <mxGeometry x="130" y="444.75" width="120" height="60" as="geometry" />
        </mxCell>
        <mxCell id="X9C1vtubzveI6itHX-SZ-16" value="" style="edgeStyle=orthogonalEdgeStyle;rounded=0;orthogonalLoop=1;jettySize=auto;html=1;" parent="WIyWlLk6GJQsqaUBKTNV-1" source="X9C1vtubzveI6itHX-SZ-7" target="X9C1vtubzveI6itHX-SZ-10" edge="1">
          <mxGeometry relative="1" as="geometry" />
        </mxCell>
        <mxCell id="X9C1vtubzveI6itHX-SZ-19" value="" style="edgeStyle=orthogonalEdgeStyle;rounded=0;orthogonalLoop=1;jettySize=auto;html=1;" parent="WIyWlLk6GJQsqaUBKTNV-1" source="X9C1vtubzveI6itHX-SZ-6" target="X9C1vtubzveI6itHX-SZ-7" edge="1">
          <mxGeometry relative="1" as="geometry" />
        </mxCell>
        <mxCell id="X9C1vtubzveI6itHX-SZ-7" value="Return the next guess" style="shape=parallelogram;perimeter=parallelogramPerimeter;whiteSpace=wrap;html=1;fixedSize=1;" parent="WIyWlLk6GJQsqaUBKTNV-1" vertex="1">
          <mxGeometry x="115" y="534.75" width="150" height="60" as="geometry" />
        </mxCell>
        <mxCell id="X9C1vtubzveI6itHX-SZ-26" value="" style="edgeStyle=orthogonalEdgeStyle;rounded=0;orthogonalLoop=1;jettySize=auto;html=1;" parent="WIyWlLk6GJQsqaUBKTNV-1" source="X9C1vtubzveI6itHX-SZ-8" edge="1">
          <mxGeometry relative="1" as="geometry">
            <mxPoint x="190" y="864.7499999999998" as="targetPoint" />
          </mxGeometry>
        </mxCell>
        <mxCell id="X9C1vtubzveI6itHX-SZ-8" value="Remove all guesses from S that would not give the same response" style="rounded=0;whiteSpace=wrap;html=1;" parent="WIyWlLk6GJQsqaUBKTNV-1" vertex="1">
          <mxGeometry x="130" y="764.75" width="120" height="60" as="geometry" />
        </mxCell>
        <mxCell id="X9C1vtubzveI6itHX-SZ-21" value="Yes" style="edgeStyle=orthogonalEdgeStyle;rounded=0;orthogonalLoop=1;jettySize=auto;html=1;" parent="WIyWlLk6GJQsqaUBKTNV-1" source="X9C1vtubzveI6itHX-SZ-10" target="X9C1vtubzveI6itHX-SZ-11" edge="1">
          <mxGeometry relative="1" as="geometry">
            <mxPoint x="300" y="667.25" as="targetPoint" />
            <Array as="points">
              <mxPoint x="70" y="667.75" />
              <mxPoint x="70" y="984.75" />
            </Array>
          </mxGeometry>
        </mxCell>
        <mxCell id="X9C1vtubzveI6itHX-SZ-10" value="Was the guess correct?" style="rhombus;whiteSpace=wrap;html=1;shadow=0;fontFamily=Helvetica;fontSize=12;align=center;strokeWidth=1;spacing=6;spacingTop=-4;" parent="WIyWlLk6GJQsqaUBKTNV-1" vertex="1">
          <mxGeometry x="130" y="614.75" width="120" height="105" as="geometry" />
        </mxCell>
        <mxCell id="X9C1vtubzveI6itHX-SZ-11" value="END" style="ellipse;whiteSpace=wrap;html=1;" parent="WIyWlLk6GJQsqaUBKTNV-1" vertex="1">
          <mxGeometry x="130" y="944.75" width="120" height="80" as="geometry" />
        </mxCell>
        <mxCell id="X9C1vtubzveI6itHX-SZ-24" value="No" style="edgeStyle=orthogonalEdgeStyle;rounded=0;orthogonalLoop=1;jettySize=auto;html=1;" parent="WIyWlLk6GJQsqaUBKTNV-1" source="X9C1vtubzveI6itHX-SZ-10" target="X9C1vtubzveI6itHX-SZ-8" edge="1">
          <mxGeometry relative="1" as="geometry">
            <mxPoint x="140" y="677.25" as="sourcePoint" />
            <mxPoint x="140" y="964.75" as="targetPoint" />
            <Array as="points">
              <mxPoint x="190" y="754.75" />
              <mxPoint x="190" y="754.75" />
            </Array>
          </mxGeometry>
        </mxCell>
        <mxCell id="X9C1vtubzveI6itHX-SZ-27" value="" style="edgeStyle=orthogonalEdgeStyle;rounded=0;orthogonalLoop=1;jettySize=auto;html=1;" parent="WIyWlLk6GJQsqaUBKTNV-1" target="X9C1vtubzveI6itHX-SZ-7" edge="1">
          <mxGeometry relative="1" as="geometry">
            <mxPoint x="250" y="894.7499999999998" as="sourcePoint" />
            <mxPoint x="200" y="624.75" as="targetPoint" />
            <Array as="points">
              <mxPoint x="320" y="894.75" />
              <mxPoint x="320" y="564.75" />
            </Array>
          </mxGeometry>
        </mxCell>
        <mxCell id="X9C1vtubzveI6itHX-SZ-35" value="" style="edgeStyle=orthogonalEdgeStyle;rounded=0;orthogonalLoop=1;jettySize=auto;html=1;" parent="WIyWlLk6GJQsqaUBKTNV-1" target="X9C1vtubzveI6itHX-SZ-30" edge="1">
          <mxGeometry relative="1" as="geometry">
            <mxPoint x="1040" y="556" as="sourcePoint" />
          </mxGeometry>
        </mxCell>
        <mxCell id="X9C1vtubzveI6itHX-SZ-29" value="Iterated through all of C?" style="rhombus;whiteSpace=wrap;html=1;" parent="WIyWlLk6GJQsqaUBKTNV-1" vertex="1">
          <mxGeometry x="984.95" y="366" width="110" height="100" as="geometry" />
        </mxCell>
        <mxCell id="X9C1vtubzveI6itHX-SZ-44" value="Yes" style="edgeStyle=orthogonalEdgeStyle;rounded=0;orthogonalLoop=1;jettySize=auto;html=1;" parent="WIyWlLk6GJQsqaUBKTNV-1" source="X9C1vtubzveI6itHX-SZ-30" target="X9C1vtubzveI6itHX-SZ-42" edge="1">
          <mxGeometry relative="1" as="geometry" />
        </mxCell>
        <mxCell id="X9C1vtubzveI6itHX-SZ-30" value="Is score &amp;gt; bestScore" style="rhombus;whiteSpace=wrap;html=1;" parent="WIyWlLk6GJQsqaUBKTNV-1" vertex="1">
          <mxGeometry x="984.95" y="576" width="110" height="100" as="geometry" />
        </mxCell>
        <mxCell id="X9C1vtubzveI6itHX-SZ-36" value="" style="edgeStyle=orthogonalEdgeStyle;rounded=0;orthogonalLoop=1;jettySize=auto;html=1;" parent="WIyWlLk6GJQsqaUBKTNV-1" source="X9C1vtubzveI6itHX-SZ-31" target="X9C1vtubzveI6itHX-SZ-29" edge="1">
          <mxGeometry relative="1" as="geometry" />
        </mxCell>
        <mxCell id="X9C1vtubzveI6itHX-SZ-31" value="Create an empty possibleGuesses set" style="rounded=0;whiteSpace=wrap;html=1;" parent="WIyWlLk6GJQsqaUBKTNV-1" vertex="1">
          <mxGeometry x="979.95" y="281" width="120" height="60" as="geometry" />
        </mxCell>
        <mxCell id="X9C1vtubzveI6itHX-SZ-33" value="Is score = bestScore" style="rhombus;whiteSpace=wrap;html=1;" parent="WIyWlLk6GJQsqaUBKTNV-1" vertex="1">
          <mxGeometry x="984.95" y="726" width="110" height="100" as="geometry" />
        </mxCell>
        <mxCell id="X9C1vtubzveI6itHX-SZ-34" value="No" style="endArrow=classic;html=1;rounded=0;" parent="WIyWlLk6GJQsqaUBKTNV-1" source="X9C1vtubzveI6itHX-SZ-30" target="X9C1vtubzveI6itHX-SZ-33" edge="1">
          <mxGeometry width="50" height="50" relative="1" as="geometry">
            <mxPoint x="869.95" y="636" as="sourcePoint" />
            <mxPoint x="919.95" y="586" as="targetPoint" />
          </mxGeometry>
        </mxCell>
        <mxCell id="X9C1vtubzveI6itHX-SZ-38" value="No" style="edgeStyle=orthogonalEdgeStyle;rounded=0;orthogonalLoop=1;jettySize=auto;html=1;" parent="WIyWlLk6GJQsqaUBKTNV-1" source="X9C1vtubzveI6itHX-SZ-33" target="X9C1vtubzveI6itHX-SZ-29" edge="1">
          <mxGeometry x="-0.9302" relative="1" as="geometry">
            <mxPoint x="994.95" y="626" as="sourcePoint" />
            <mxPoint x="994.95" y="426" as="targetPoint" />
            <Array as="points">
              <mxPoint x="949.95" y="776" />
              <mxPoint x="949.95" y="416" />
            </Array>
            <mxPoint as="offset" />
          </mxGeometry>
        </mxCell>
        <mxCell id="X9C1vtubzveI6itHX-SZ-41" value="No" style="endArrow=classic;html=1;rounded=0;" parent="WIyWlLk6GJQsqaUBKTNV-1" source="X9C1vtubzveI6itHX-SZ-29" edge="1">
          <mxGeometry width="50" height="50" relative="1" as="geometry">
            <mxPoint x="1049.95" y="676" as="sourcePoint" />
            <mxPoint x="1039.95" y="496" as="targetPoint" />
          </mxGeometry>
        </mxCell>
        <mxCell id="X9C1vtubzveI6itHX-SZ-45" value="" style="edgeStyle=orthogonalEdgeStyle;rounded=0;orthogonalLoop=1;jettySize=auto;html=1;" parent="WIyWlLk6GJQsqaUBKTNV-1" source="X9C1vtubzveI6itHX-SZ-42" target="X9C1vtubzveI6itHX-SZ-43" edge="1">
          <mxGeometry relative="1" as="geometry" />
        </mxCell>
        <mxCell id="X9C1vtubzveI6itHX-SZ-42" value="Set bestScore to score" style="rounded=0;whiteSpace=wrap;html=1;" parent="WIyWlLk6GJQsqaUBKTNV-1" vertex="1">
          <mxGeometry x="1129.95" y="598.5" width="110" height="55" as="geometry" />
        </mxCell>
        <mxCell id="X9C1vtubzveI6itHX-SZ-43" value="Create a new possibleGuesses set containing the item" style="rounded=0;whiteSpace=wrap;html=1;" parent="WIyWlLk6GJQsqaUBKTNV-1" vertex="1">
          <mxGeometry x="1124.95" y="497.25" width="120" height="57.5" as="geometry" />
        </mxCell>
        <mxCell id="X9C1vtubzveI6itHX-SZ-47" value="" style="edgeStyle=orthogonalEdgeStyle;rounded=0;orthogonalLoop=1;jettySize=auto;html=1;" parent="WIyWlLk6GJQsqaUBKTNV-1" source="X9C1vtubzveI6itHX-SZ-43" target="X9C1vtubzveI6itHX-SZ-29" edge="1">
          <mxGeometry relative="1" as="geometry">
            <mxPoint x="1049.95" y="351" as="sourcePoint" />
            <mxPoint x="1049.95" y="376" as="targetPoint" />
            <Array as="points">
              <mxPoint x="1184.95" y="446" />
            </Array>
          </mxGeometry>
        </mxCell>
        <mxCell id="X9C1vtubzveI6itHX-SZ-49" value="" style="edgeStyle=orthogonalEdgeStyle;rounded=0;orthogonalLoop=1;jettySize=auto;html=1;" parent="WIyWlLk6GJQsqaUBKTNV-1" source="X9C1vtubzveI6itHX-SZ-48" target="X9C1vtubzveI6itHX-SZ-31" edge="1">
          <mxGeometry relative="1" as="geometry" />
        </mxCell>
        <mxCell id="X9C1vtubzveI6itHX-SZ-48" value="Set bestScore to -1" style="rounded=0;whiteSpace=wrap;html=1;" parent="WIyWlLk6GJQsqaUBKTNV-1" vertex="1">
          <mxGeometry x="979.95" y="196" width="120" height="60" as="geometry" />
        </mxCell>
        <mxCell id="X9C1vtubzveI6itHX-SZ-50" value="Append item to possibleGuesses" style="rounded=0;whiteSpace=wrap;html=1;" parent="WIyWlLk6GJQsqaUBKTNV-1" vertex="1">
          <mxGeometry x="984.95" y="865" width="110" height="55" as="geometry" />
        </mxCell>
        <mxCell id="X9C1vtubzveI6itHX-SZ-51" value="Yes" style="endArrow=classic;html=1;rounded=0;" parent="WIyWlLk6GJQsqaUBKTNV-1" source="X9C1vtubzveI6itHX-SZ-33" target="X9C1vtubzveI6itHX-SZ-50" edge="1">
          <mxGeometry width="50" height="50" relative="1" as="geometry">
            <mxPoint x="1049.95" y="686" as="sourcePoint" />
            <mxPoint x="1049.95" y="736" as="targetPoint" />
          </mxGeometry>
        </mxCell>
        <mxCell id="X9C1vtubzveI6itHX-SZ-52" value="" style="edgeStyle=orthogonalEdgeStyle;rounded=0;orthogonalLoop=1;jettySize=auto;html=1;" parent="WIyWlLk6GJQsqaUBKTNV-1" source="X9C1vtubzveI6itHX-SZ-50" target="X9C1vtubzveI6itHX-SZ-29" edge="1">
          <mxGeometry relative="1" as="geometry">
            <mxPoint x="1194.95" y="608.5" as="sourcePoint" />
            <mxPoint x="1194.95" y="564.75" as="targetPoint" />
            <Array as="points">
              <mxPoint x="949.95" y="892.5" />
              <mxPoint x="949.95" y="416" />
            </Array>
          </mxGeometry>
        </mxCell>
        <mxCell id="X9C1vtubzveI6itHX-SZ-64" value="" style="edgeStyle=orthogonalEdgeStyle;rounded=0;orthogonalLoop=1;jettySize=auto;html=1;" parent="WIyWlLk6GJQsqaUBKTNV-1" source="X9C1vtubzveI6itHX-SZ-53" target="X9C1vtubzveI6itHX-SZ-54" edge="1">
          <mxGeometry relative="1" as="geometry" />
        </mxCell>
        <mxCell id="X9C1vtubzveI6itHX-SZ-53" value="Sort the possibeGuesses based on the value of each peg from low to high" style="rounded=0;whiteSpace=wrap;html=1;" parent="WIyWlLk6GJQsqaUBKTNV-1" vertex="1">
          <mxGeometry x="1129.95" y="341" width="130.05" height="64.5" as="geometry" />
        </mxCell>
        <mxCell id="X9C1vtubzveI6itHX-SZ-61" value="Yes" style="edgeStyle=orthogonalEdgeStyle;rounded=0;orthogonalLoop=1;jettySize=auto;html=1;" parent="WIyWlLk6GJQsqaUBKTNV-1" source="X9C1vtubzveI6itHX-SZ-54" target="X9C1vtubzveI6itHX-SZ-60" edge="1">
          <mxGeometry relative="1" as="geometry" />
        </mxCell>
        <mxCell id="X9C1vtubzveI6itHX-SZ-62" value="No" style="edgeStyle=orthogonalEdgeStyle;rounded=0;orthogonalLoop=1;jettySize=auto;html=1;" parent="WIyWlLk6GJQsqaUBKTNV-1" source="X9C1vtubzveI6itHX-SZ-54" target="X9C1vtubzveI6itHX-SZ-56" edge="1">
          <mxGeometry relative="1" as="geometry" />
        </mxCell>
        <mxCell id="X9C1vtubzveI6itHX-SZ-54" value="Iterated through all of possibleGuesses?" style="rhombus;whiteSpace=wrap;html=1;" parent="WIyWlLk6GJQsqaUBKTNV-1" vertex="1">
          <mxGeometry x="1300" y="318.25" width="120" height="110" as="geometry" />
        </mxCell>
        <mxCell id="X9C1vtubzveI6itHX-SZ-63" value="Yes" style="edgeStyle=orthogonalEdgeStyle;rounded=0;orthogonalLoop=1;jettySize=auto;html=1;" parent="WIyWlLk6GJQsqaUBKTNV-1" source="X9C1vtubzveI6itHX-SZ-56" target="X9C1vtubzveI6itHX-SZ-57" edge="1">
          <mxGeometry relative="1" as="geometry" />
        </mxCell>
        <mxCell id="X9C1vtubzveI6itHX-SZ-56" value="Is the item in S?" style="rhombus;whiteSpace=wrap;html=1;" parent="WIyWlLk6GJQsqaUBKTNV-1" vertex="1">
          <mxGeometry x="1450" y="318.25" width="120" height="110" as="geometry" />
        </mxCell>
        <mxCell id="X9C1vtubzveI6itHX-SZ-57" value="Return the item" style="shape=parallelogram;perimeter=parallelogramPerimeter;whiteSpace=wrap;html=1;fixedSize=1;" parent="WIyWlLk6GJQsqaUBKTNV-1" vertex="1">
          <mxGeometry x="1450" y="221" width="120" height="60" as="geometry" />
        </mxCell>
        <mxCell id="X9C1vtubzveI6itHX-SZ-69" value="" style="edgeStyle=orthogonalEdgeStyle;rounded=0;orthogonalLoop=1;jettySize=auto;html=1;" parent="WIyWlLk6GJQsqaUBKTNV-1" source="X9C1vtubzveI6itHX-SZ-58" target="X9C1vtubzveI6itHX-SZ-48" edge="1">
          <mxGeometry relative="1" as="geometry" />
        </mxCell>
        <mxCell id="X9C1vtubzveI6itHX-SZ-58" value="genNextGuess&lt;br&gt;START" style="ellipse;whiteSpace=wrap;html=1;" parent="WIyWlLk6GJQsqaUBKTNV-1" vertex="1">
          <mxGeometry x="979.95" y="75.5" width="120" height="80" as="geometry" />
        </mxCell>
        <mxCell id="X9C1vtubzveI6itHX-SZ-59" value="END" style="ellipse;whiteSpace=wrap;html=1;" parent="WIyWlLk6GJQsqaUBKTNV-1" vertex="1">
          <mxGeometry x="1140" y="141" width="120" height="80" as="geometry" />
        </mxCell>
        <mxCell id="X9C1vtubzveI6itHX-SZ-60" value="Return the item at the first position in possibleGuesses" style="shape=parallelogram;perimeter=parallelogramPerimeter;whiteSpace=wrap;html=1;fixedSize=1;" parent="WIyWlLk6GJQsqaUBKTNV-1" vertex="1">
          <mxGeometry x="1290" y="221" width="140" height="64.5" as="geometry" />
        </mxCell>
        <mxCell id="X9C1vtubzveI6itHX-SZ-65" value="" style="edgeStyle=orthogonalEdgeStyle;rounded=0;orthogonalLoop=1;jettySize=auto;html=1;" parent="WIyWlLk6GJQsqaUBKTNV-1" source="X9C1vtubzveI6itHX-SZ-60" target="X9C1vtubzveI6itHX-SZ-59" edge="1">
          <mxGeometry relative="1" as="geometry">
            <mxPoint x="1270" y="383.2368421052631" as="sourcePoint" />
            <mxPoint x="1310.1004784688996" y="383.3421052631579" as="targetPoint" />
            <Array as="points">
              <mxPoint x="1360" y="181.5" />
            </Array>
          </mxGeometry>
        </mxCell>
        <mxCell id="X9C1vtubzveI6itHX-SZ-66" value="" style="edgeStyle=orthogonalEdgeStyle;rounded=0;orthogonalLoop=1;jettySize=auto;html=1;" parent="WIyWlLk6GJQsqaUBKTNV-1" source="X9C1vtubzveI6itHX-SZ-57" target="X9C1vtubzveI6itHX-SZ-59" edge="1">
          <mxGeometry relative="1" as="geometry">
            <mxPoint x="1370.0526315789475" y="231" as="sourcePoint" />
            <mxPoint x="1269.994273445558" y="191.5526315789474" as="targetPoint" />
            <Array as="points">
              <mxPoint x="1510" y="181.5" />
            </Array>
          </mxGeometry>
        </mxCell>
        <mxCell id="X9C1vtubzveI6itHX-SZ-67" value="No" style="edgeStyle=orthogonalEdgeStyle;rounded=0;orthogonalLoop=1;jettySize=auto;html=1;" parent="WIyWlLk6GJQsqaUBKTNV-1" source="X9C1vtubzveI6itHX-SZ-56" target="X9C1vtubzveI6itHX-SZ-54" edge="1">
          <mxGeometry relative="1" as="geometry">
            <mxPoint x="1429.8995215311004" y="383.3421052631579" as="sourcePoint" />
            <mxPoint x="1460.1004784688996" y="383.3421052631579" as="targetPoint" />
            <Array as="points">
              <mxPoint x="1510" y="445.5" />
              <mxPoint x="1360" y="445.5" />
            </Array>
          </mxGeometry>
        </mxCell>
        <mxCell id="X9C1vtubzveI6itHX-SZ-68" value="Yes" style="edgeStyle=orthogonalEdgeStyle;rounded=0;orthogonalLoop=1;jettySize=auto;html=1;" parent="WIyWlLk6GJQsqaUBKTNV-1" source="X9C1vtubzveI6itHX-SZ-29" target="X9C1vtubzveI6itHX-SZ-53" edge="1">
          <mxGeometry relative="1" as="geometry">
            <mxPoint x="1270" y="383.2368421052631" as="sourcePoint" />
            <mxPoint x="1310.1004784688996" y="383.3421052631579" as="targetPoint" />
            <Array as="points">
              <mxPoint x="1115" y="395.5" />
              <mxPoint x="1115" y="373.5" />
            </Array>
          </mxGeometry>
        </mxCell>
        <mxCell id="X9C1vtubzveI6itHX-SZ-70" value="Get the next guess from genNextGuess" style="shape=parallelogram;perimeter=parallelogramPerimeter;whiteSpace=wrap;html=1;fixedSize=1;" parent="WIyWlLk6GJQsqaUBKTNV-1" vertex="1">
          <mxGeometry x="120" y="864.75" width="140" height="64.5" as="geometry" />
        </mxCell>
        <mxCell id="X9C1vtubzveI6itHX-SZ-72" value="Get the score for the next item from calcScore" style="shape=parallelogram;perimeter=parallelogramPerimeter;whiteSpace=wrap;html=1;fixedSize=1;" parent="WIyWlLk6GJQsqaUBKTNV-1" vertex="1">
          <mxGeometry x="969.95" y="497.25" width="140" height="58.25" as="geometry" />
        </mxCell>
        <mxCell id="Vt6WhcfgmrBMfULhsIFq-11" value="" style="edgeStyle=orthogonalEdgeStyle;rounded=0;orthogonalLoop=1;jettySize=auto;html=1;" parent="WIyWlLk6GJQsqaUBKTNV-1" source="Vt6WhcfgmrBMfULhsIFq-0" target="Vt6WhcfgmrBMfULhsIFq-2" edge="1">
          <mxGeometry relative="1" as="geometry" />
        </mxCell>
        <mxCell id="Vt6WhcfgmrBMfULhsIFq-0" value="calcScore&lt;br&gt;START" style="ellipse;whiteSpace=wrap;html=1;" parent="WIyWlLk6GJQsqaUBKTNV-1" vertex="1">
          <mxGeometry x="1730" y="75.5" width="120" height="80" as="geometry" />
        </mxCell>
        <mxCell id="Vt6WhcfgmrBMfULhsIFq-1" value="Set minNumber to 999999999" style="rounded=0;whiteSpace=wrap;html=1;" parent="WIyWlLk6GJQsqaUBKTNV-1" vertex="1">
          <mxGeometry x="1730" y="275.5" width="120" height="60" as="geometry" />
        </mxCell>
        <mxCell id="Vt6WhcfgmrBMfULhsIFq-12" value="" style="edgeStyle=orthogonalEdgeStyle;rounded=0;orthogonalLoop=1;jettySize=auto;html=1;" parent="WIyWlLk6GJQsqaUBKTNV-1" source="Vt6WhcfgmrBMfULhsIFq-2" target="Vt6WhcfgmrBMfULhsIFq-1" edge="1">
          <mxGeometry relative="1" as="geometry" />
        </mxCell>
        <mxCell id="Vt6WhcfgmrBMfULhsIFq-2" value="Get guess as parameter" style="shape=parallelogram;perimeter=parallelogramPerimeter;whiteSpace=wrap;html=1;fixedSize=1;" parent="WIyWlLk6GJQsqaUBKTNV-1" vertex="1">
          <mxGeometry x="1730" y="185.5" width="120" height="60" as="geometry" />
        </mxCell>
        <mxCell id="Vt6WhcfgmrBMfULhsIFq-3" value="Generate set responses of all possible responses to guess" style="rounded=0;whiteSpace=wrap;html=1;" parent="WIyWlLk6GJQsqaUBKTNV-1" vertex="1">
          <mxGeometry x="1730" y="365.5" width="120" height="60" as="geometry" />
        </mxCell>
        <mxCell id="Vt6WhcfgmrBMfULhsIFq-16" value="No" style="edgeStyle=orthogonalEdgeStyle;rounded=0;orthogonalLoop=1;jettySize=auto;html=1;" parent="WIyWlLk6GJQsqaUBKTNV-1" source="Vt6WhcfgmrBMfULhsIFq-4" target="Vt6WhcfgmrBMfULhsIFq-6" edge="1">
          <mxGeometry relative="1" as="geometry" />
        </mxCell>
        <mxCell id="Vt6WhcfgmrBMfULhsIFq-22" value="Yes" style="edgeStyle=orthogonalEdgeStyle;rounded=0;orthogonalLoop=1;jettySize=auto;html=1;" parent="WIyWlLk6GJQsqaUBKTNV-1" source="Vt6WhcfgmrBMfULhsIFq-4" target="Vt6WhcfgmrBMfULhsIFq-21" edge="1">
          <mxGeometry relative="1" as="geometry" />
        </mxCell>
        <mxCell id="Vt6WhcfgmrBMfULhsIFq-4" value="Iterated through all of responses?" style="rhombus;whiteSpace=wrap;html=1;" parent="WIyWlLk6GJQsqaUBKTNV-1" vertex="1">
          <mxGeometry x="1730" y="444.75" width="120" height="110" as="geometry" />
        </mxCell>
        <mxCell id="Vt6WhcfgmrBMfULhsIFq-17" value="" style="edgeStyle=orthogonalEdgeStyle;rounded=0;orthogonalLoop=1;jettySize=auto;html=1;" parent="WIyWlLk6GJQsqaUBKTNV-1" source="Vt6WhcfgmrBMfULhsIFq-6" target="Vt6WhcfgmrBMfULhsIFq-8" edge="1">
          <mxGeometry relative="1" as="geometry" />
        </mxCell>
        <mxCell id="Vt6WhcfgmrBMfULhsIFq-6" value="Set num to be the number of guesses that would give the same response" style="rounded=0;whiteSpace=wrap;html=1;" parent="WIyWlLk6GJQsqaUBKTNV-1" vertex="1">
          <mxGeometry x="1725" y="588.5" width="130" height="75" as="geometry" />
        </mxCell>
        <mxCell id="Vt6WhcfgmrBMfULhsIFq-18" value="Yes" style="edgeStyle=orthogonalEdgeStyle;rounded=0;orthogonalLoop=1;jettySize=auto;html=1;" parent="WIyWlLk6GJQsqaUBKTNV-1" source="Vt6WhcfgmrBMfULhsIFq-8" target="Vt6WhcfgmrBMfULhsIFq-9" edge="1">
          <mxGeometry relative="1" as="geometry" />
        </mxCell>
        <mxCell id="Vt6WhcfgmrBMfULhsIFq-8" value="Is num &amp;lt; minNumber?" style="rhombus;whiteSpace=wrap;html=1;" parent="WIyWlLk6GJQsqaUBKTNV-1" vertex="1">
          <mxGeometry x="1730" y="685.5" width="120" height="110" as="geometry" />
        </mxCell>
        <mxCell id="Vt6WhcfgmrBMfULhsIFq-9" value="Set minNumber to num" style="rounded=0;whiteSpace=wrap;html=1;" parent="WIyWlLk6GJQsqaUBKTNV-1" vertex="1">
          <mxGeometry x="1730" y="826" width="120" height="60" as="geometry" />
        </mxCell>
        <mxCell id="Vt6WhcfgmrBMfULhsIFq-14" value="" style="edgeStyle=orthogonalEdgeStyle;rounded=0;orthogonalLoop=1;jettySize=auto;html=1;" parent="WIyWlLk6GJQsqaUBKTNV-1" source="Vt6WhcfgmrBMfULhsIFq-1" target="Vt6WhcfgmrBMfULhsIFq-3" edge="1">
          <mxGeometry relative="1" as="geometry">
            <mxPoint x="1800.0588235294117" y="255.5" as="sourcePoint" />
            <mxPoint x="1800.0588235294117" y="285.5" as="targetPoint" />
          </mxGeometry>
        </mxCell>
        <mxCell id="Vt6WhcfgmrBMfULhsIFq-15" value="" style="edgeStyle=orthogonalEdgeStyle;rounded=0;orthogonalLoop=1;jettySize=auto;html=1;" parent="WIyWlLk6GJQsqaUBKTNV-1" source="Vt6WhcfgmrBMfULhsIFq-3" target="Vt6WhcfgmrBMfULhsIFq-4" edge="1">
          <mxGeometry relative="1" as="geometry">
            <mxPoint x="1810.0588235294117" y="265.5" as="sourcePoint" />
            <mxPoint x="1810.0588235294117" y="295.5" as="targetPoint" />
          </mxGeometry>
        </mxCell>
        <mxCell id="Vt6WhcfgmrBMfULhsIFq-19" value="No" style="edgeStyle=orthogonalEdgeStyle;rounded=0;orthogonalLoop=1;jettySize=auto;html=1;" parent="WIyWlLk6GJQsqaUBKTNV-1" source="Vt6WhcfgmrBMfULhsIFq-8" target="Vt6WhcfgmrBMfULhsIFq-4" edge="1">
          <mxGeometry x="-0.8749" relative="1" as="geometry">
            <mxPoint x="1820.0588235294117" y="275.5" as="sourcePoint" />
            <mxPoint x="1820.0588235294117" y="305.5" as="targetPoint" />
            <Array as="points">
              <mxPoint x="1690" y="740.5" />
              <mxPoint x="1690" y="499.7500000000002" />
            </Array>
            <mxPoint as="offset" />
          </mxGeometry>
        </mxCell>
        <mxCell id="Vt6WhcfgmrBMfULhsIFq-20" value="" style="edgeStyle=orthogonalEdgeStyle;rounded=0;orthogonalLoop=1;jettySize=auto;html=1;" parent="WIyWlLk6GJQsqaUBKTNV-1" source="Vt6WhcfgmrBMfULhsIFq-9" target="Vt6WhcfgmrBMfULhsIFq-4" edge="1">
          <mxGeometry relative="1" as="geometry">
            <mxPoint x="1940" y="445.5" as="sourcePoint" />
            <mxPoint x="1830.0588235294117" y="315.5" as="targetPoint" />
            <Array as="points">
              <mxPoint x="1690" y="855.9999999999998" />
              <mxPoint x="1690" y="499.7500000000002" />
            </Array>
          </mxGeometry>
        </mxCell>
        <mxCell id="Vt6WhcfgmrBMfULhsIFq-24" value="" style="edgeStyle=orthogonalEdgeStyle;rounded=0;orthogonalLoop=1;jettySize=auto;html=1;" parent="WIyWlLk6GJQsqaUBKTNV-1" source="Vt6WhcfgmrBMfULhsIFq-21" target="Vt6WhcfgmrBMfULhsIFq-23" edge="1">
          <mxGeometry relative="1" as="geometry" />
        </mxCell>
        <mxCell id="Vt6WhcfgmrBMfULhsIFq-21" value="Return minNumber" style="shape=parallelogram;perimeter=parallelogramPerimeter;whiteSpace=wrap;html=1;fixedSize=1;" parent="WIyWlLk6GJQsqaUBKTNV-1" vertex="1">
          <mxGeometry x="1890" y="469.75" width="120" height="60" as="geometry" />
        </mxCell>
        <mxCell id="Vt6WhcfgmrBMfULhsIFq-23" value="END" style="ellipse;whiteSpace=wrap;html=1;" parent="WIyWlLk6GJQsqaUBKTNV-1" vertex="1">
          <mxGeometry x="1890" y="565.5" width="120" height="80" as="geometry" />
        </mxCell>
        <mxCell id="pyRPbuoNIwLuSSbs0AWB-7" value="" style="edgeStyle=orthogonalEdgeStyle;rounded=0;orthogonalLoop=1;jettySize=auto;html=1;" edge="1" parent="WIyWlLk6GJQsqaUBKTNV-1" source="pyRPbuoNIwLuSSbs0AWB-0" target="pyRPbuoNIwLuSSbs0AWB-4">
          <mxGeometry relative="1" as="geometry" />
        </mxCell>
        <mxCell id="pyRPbuoNIwLuSSbs0AWB-0" value="genInitialGuess&lt;br&gt;START" style="ellipse;whiteSpace=wrap;html=1;" vertex="1" parent="WIyWlLk6GJQsqaUBKTNV-1">
          <mxGeometry x="460" y="40" width="120" height="80" as="geometry" />
        </mxCell>
        <mxCell id="pyRPbuoNIwLuSSbs0AWB-9" value="No" style="edgeStyle=orthogonalEdgeStyle;rounded=0;orthogonalLoop=1;jettySize=auto;html=1;" edge="1" parent="WIyWlLk6GJQsqaUBKTNV-1" source="pyRPbuoNIwLuSSbs0AWB-1" target="pyRPbuoNIwLuSSbs0AWB-3">
          <mxGeometry relative="1" as="geometry" />
        </mxCell>
        <mxCell id="pyRPbuoNIwLuSSbs0AWB-1" value="Is initial guess correct length?" style="rhombus;whiteSpace=wrap;html=1;" vertex="1" parent="WIyWlLk6GJQsqaUBKTNV-1">
          <mxGeometry x="465" y="233.88" width="110" height="84.5" as="geometry" />
        </mxCell>
        <mxCell id="pyRPbuoNIwLuSSbs0AWB-10" value="" style="edgeStyle=orthogonalEdgeStyle;rounded=0;orthogonalLoop=1;jettySize=auto;html=1;" edge="1" parent="WIyWlLk6GJQsqaUBKTNV-1" source="pyRPbuoNIwLuSSbs0AWB-3" target="pyRPbuoNIwLuSSbs0AWB-5">
          <mxGeometry relative="1" as="geometry" />
        </mxCell>
        <mxCell id="pyRPbuoNIwLuSSbs0AWB-3" value="Append the first item from the list to the initial guess without removing it" style="rounded=0;whiteSpace=wrap;html=1;" vertex="1" parent="WIyWlLk6GJQsqaUBKTNV-1">
          <mxGeometry x="460" y="350" width="120" height="60" as="geometry" />
        </mxCell>
        <mxCell id="pyRPbuoNIwLuSSbs0AWB-8" value="" style="edgeStyle=orthogonalEdgeStyle;rounded=0;orthogonalLoop=1;jettySize=auto;html=1;" edge="1" parent="WIyWlLk6GJQsqaUBKTNV-1" source="pyRPbuoNIwLuSSbs0AWB-4" target="pyRPbuoNIwLuSSbs0AWB-1">
          <mxGeometry relative="1" as="geometry" />
        </mxCell>
        <mxCell id="pyRPbuoNIwLuSSbs0AWB-4" value="Create a list of the possible colour options" style="rounded=0;whiteSpace=wrap;html=1;" vertex="1" parent="WIyWlLk6GJQsqaUBKTNV-1">
          <mxGeometry x="460" y="151" width="120" height="60" as="geometry" />
        </mxCell>
        <mxCell id="pyRPbuoNIwLuSSbs0AWB-11" value="No" style="edgeStyle=orthogonalEdgeStyle;rounded=0;orthogonalLoop=1;jettySize=auto;html=1;" edge="1" parent="WIyWlLk6GJQsqaUBKTNV-1" source="pyRPbuoNIwLuSSbs0AWB-5" target="pyRPbuoNIwLuSSbs0AWB-6">
          <mxGeometry relative="1" as="geometry" />
        </mxCell>
        <mxCell id="pyRPbuoNIwLuSSbs0AWB-5" value="Is initial guess correct length?" style="rhombus;whiteSpace=wrap;html=1;" vertex="1" parent="WIyWlLk6GJQsqaUBKTNV-1">
          <mxGeometry x="620" y="337.75" width="110" height="84.5" as="geometry" />
        </mxCell>
        <mxCell id="pyRPbuoNIwLuSSbs0AWB-12" value="" style="edgeStyle=orthogonalEdgeStyle;rounded=0;orthogonalLoop=1;jettySize=auto;html=1;" edge="1" parent="WIyWlLk6GJQsqaUBKTNV-1" source="pyRPbuoNIwLuSSbs0AWB-6" target="pyRPbuoNIwLuSSbs0AWB-1">
          <mxGeometry relative="1" as="geometry" />
        </mxCell>
        <mxCell id="pyRPbuoNIwLuSSbs0AWB-6" value="Append the first item from the list to the initial guess and move it to the back of the list" style="rounded=0;whiteSpace=wrap;html=1;" vertex="1" parent="WIyWlLk6GJQsqaUBKTNV-1">
          <mxGeometry x="610" y="242.25" width="130" height="67.75" as="geometry" />
        </mxCell>
        <mxCell id="pyRPbuoNIwLuSSbs0AWB-13" value="Yes" style="edgeStyle=orthogonalEdgeStyle;rounded=0;orthogonalLoop=1;jettySize=auto;html=1;" edge="1" parent="WIyWlLk6GJQsqaUBKTNV-1" source="pyRPbuoNIwLuSSbs0AWB-1" target="pyRPbuoNIwLuSSbs0AWB-15">
          <mxGeometry relative="1" as="geometry">
            <mxPoint x="530" y="130" as="sourcePoint" />
            <mxPoint x="460" y="489.75" as="targetPoint" />
            <Array as="points">
              <mxPoint x="430" y="276" />
              <mxPoint x="430" y="490" />
            </Array>
          </mxGeometry>
        </mxCell>
        <mxCell id="pyRPbuoNIwLuSSbs0AWB-14" value="Yes" style="edgeStyle=orthogonalEdgeStyle;rounded=0;orthogonalLoop=1;jettySize=auto;html=1;" edge="1" parent="WIyWlLk6GJQsqaUBKTNV-1" source="pyRPbuoNIwLuSSbs0AWB-5" target="pyRPbuoNIwLuSSbs0AWB-15">
          <mxGeometry relative="1" as="geometry">
            <mxPoint x="540" y="140" as="sourcePoint" />
            <mxPoint x="579.9988281135559" y="490" as="targetPoint" />
            <Array as="points">
              <mxPoint x="675" y="490" />
            </Array>
          </mxGeometry>
        </mxCell>
        <mxCell id="pyRPbuoNIwLuSSbs0AWB-18" value="" style="edgeStyle=orthogonalEdgeStyle;rounded=0;orthogonalLoop=1;jettySize=auto;html=1;" edge="1" parent="WIyWlLk6GJQsqaUBKTNV-1" source="pyRPbuoNIwLuSSbs0AWB-15" target="pyRPbuoNIwLuSSbs0AWB-16">
          <mxGeometry relative="1" as="geometry" />
        </mxCell>
        <mxCell id="pyRPbuoNIwLuSSbs0AWB-15" value="Return the initial guess" style="shape=parallelogram;perimeter=parallelogramPerimeter;whiteSpace=wrap;html=1;fixedSize=1;" vertex="1" parent="WIyWlLk6GJQsqaUBKTNV-1">
          <mxGeometry x="460" y="460" width="120" height="60" as="geometry" />
        </mxCell>
        <mxCell id="pyRPbuoNIwLuSSbs0AWB-16" value="END" style="ellipse;whiteSpace=wrap;html=1;" vertex="1" parent="WIyWlLk6GJQsqaUBKTNV-1">
          <mxGeometry x="460" y="554.75" width="120" height="80" as="geometry" />
        </mxCell>
        <mxCell id="pyRPbuoNIwLuSSbs0AWB-21" value="" style="edgeStyle=orthogonalEdgeStyle;rounded=0;orthogonalLoop=1;jettySize=auto;html=1;" edge="1" parent="WIyWlLk6GJQsqaUBKTNV-1" source="pyRPbuoNIwLuSSbs0AWB-19" target="X9C1vtubzveI6itHX-SZ-6">
          <mxGeometry relative="1" as="geometry" />
        </mxCell>
        <mxCell id="pyRPbuoNIwLuSSbs0AWB-19" value="Get the initial guess from genInitialGuess" style="shape=parallelogram;perimeter=parallelogramPerimeter;whiteSpace=wrap;html=1;fixedSize=1;" vertex="1" parent="WIyWlLk6GJQsqaUBKTNV-1">
          <mxGeometry x="115" y="345.5" width="150" height="60" as="geometry" />
        </mxCell>
      </root>
    </mxGraphModel>
  </diagram>
</mxfile>
